# xmcd
# 
# Track frame offsets:
#     150
#     25597
#     45023
#     66751
#     85470
#     103892
#     131025
#     156878
#     175604
#     203519
#     226635
#     240663
#     246779
#     277162
#     306063
#     327777
# 
# Disc length: 4751
# 
# Revision: 6
# Processed by: cddbd v1.5.2PL0 Copyright (c) Steve Scherf et al.
# Submitted via: fre:ac v1.0.31
# 
DISCID=c8128d10
DTITLE=Taylor Swift - Speak Now - World Tour Live
DYEAR=2011
DGENRE=Rock/Pop
TTITLE0=Sparks Fly (Live)
TTITLE1=Mine (Live)
TTITLE2=The Story Of Us (Live)
TTITLE3=Mean (Live)
TTITLE4=Ours (Live)
TTITLE5=Back To December and Apologize and You're Not Sorry (Live)
TTITLE6=Better Than Revenge (Live)
TTITLE7=Speak Now (Live)
TTITLE8=Last Kiss (Live)
TTITLE9=Drops Of Jupiter (Live)
TTITLE10=Bette Davis Eyes (Live)
TTITLE11=I Want You Back (Live)
TTITLE12=Dear John (Live)
TTITLE13=Enchanted (Live)
TTITLE14=Haunted (Live)
TTITLE15=Long Live (Live)
EXTD=
EXTT0=
EXTT1=
EXTT2=
EXTT3=
EXTT4=
EXTT5=
EXTT6=
EXTT7=
EXTT8=
EXTT9=
EXTT10=
EXTT11=
EXTT12=
EXTT13=
EXTT14=
EXTT15=
PLAYORDER=
